#!OML:ASF H:\Terrain\Patient Classification 1\Animal2\Wednesday\Animal2.ASF
:FULLY-SPECIFIED
:DEGREES
3462
root -1.8614 17.5776 7.29307 209.8 -185.963 -178.97
lowerback 16.9942 0.357404 1.61595
upperback -4.89015 0.827049 -0.213915
thorax -15.1394 0.21166 -1.40619
lowerneck 9.71534 8.57813 16.3325
upperneck -22.6851 10.7291 -21.5315
head -6.05219 6.06423 -10.728
rclavicle 0 1.59028e-015
rhumerus -42.985 -12.224 -69.4165
rradius 32.6531
rwrist 11.0711
rhand -9.24031 18.9036
rfingers 7.12502
rthumb 16.7151 -10.3968
lclavicle 0 1.59028e-015
lhumerus -52.5385 3.01691 69.554
lradius 48.9852
lwrist 20.3378
lhand -25.1723 19.3956
lfingers 7.12502
lthumb 1.34519 49.3711
rfemur -49.904 -1.04469 10.1485
rtibia 37.9781
rfoot -18.2341 -3.63095
rtoes 14.8576
lfemur -51.0145 -2.37284 -8.59679
ltibia 32.5408
lfoot -12.7202 -1.62734
ltoes -34.2854
3463
root -1.86668 17.5649 7.30252 209.705 -186.049 -178.9
lowerback 16.7561 0.371521 1.52014
upperback -4.91025 0.826787 -0.167361
thorax -15.018 0.225329 -1.29553
lowerneck 9.61447 8.65229 16.3975
upperneck -22.5731 10.8174 -21.6677
head -5.9642 6.11344 -10.7654
rclavicle -2.80286e-014 -5.56597e-015
rhumerus -42.7705 -11.7411 -69.6767
rradius 33.041
rwrist 10.9218
rhand -9.39249 18.6469
rfingers 7.12502
rthumb 16.5686 -10.6658
lclavicle -2.80286e-014 -5.56597e-015
lhumerus -52.3853 2.98192 69.7363
lradius 49.8274
lwrist 20.5268
lhand -24.7285 18.9707
lfingers 7.12502
lthumb 1.77379 48.943
rfemur -49.8513 -1.21624 10.1966
rtibia 38.2091
rfoot -18.3964 -3.6722
rtoes 14.0101
lfemur -50.9659 -2.31324 -8.72505
ltibia 32.6679
lfoot -12.8433 -1.67448
ltoes -35.4002
3464
root -1.87099 17.5604 7.31088 209.625 -186.254 -178.996
lowerback 16.5496 0.364737 1.682
upperback -5.01701 0.862143 -0.0972442
thorax -15.0163 0.230601 -1.31637
lowerneck 9.81014 8.66219 16.3806
upperneck -22.626 10.8412 -21.7252
head -6.00731 6.13825 -10.803
rclavicle 4.57205e-015 -2.78299e-015
rhumerus -42.6273 -11.31 -69.9465
rradius 33.3075
rwrist 10.7325
rhand -9.43954 18.1175
rfingers 7.12502
rthumb 16.5233 -11.199
lclavicle 4.57205e-015 -2.78299e-015
lhumerus -52.3953 2.74521 70.0042
lradius 50.8488
lwrist 20.6431
lhand -24.697 18.8896
lfingers 7.12502
lthumb 1.80417 48.8617
rfemur -49.7691 -1.26439 10.3914
rtibia 38.3537
rfoot -18.5046 -3.82192
rtoes 12.9616
lfemur -50.9846 -2.23488 -8.6603
ltibia 32.8015
lfoot -13.0426 -1.81466
ltoes -35.9701
3465
root -1.87588 17.5644 7.32374 209.363 -186.425 -179.195
lowerback 16.6215 0.393092 1.84086
upperback -5.1695 0.961295 0.0462285
thorax -15.2412 0.266401 -1.27549
lowerneck 10.2314 8.59162 16.1375
upperneck -22.8552 10.748 -21.646
head -6.19828 6.11541 -10.7937
rclavicle 5.76476e-015 -8.74653e-015
rhumerus -42.6642 -10.9963 -70.0002
rradius 33.6089
rwrist 10.602
rhand -9.4503 18.0099
rfingers 7.12502
rthumb 16.5129 -11.3074
lclavicle 5.76476e-015 -8.74653e-015
lhumerus -52.5696 2.41549 70.4011
lradius 52.0466
lwrist 21.1185
lhand -25.1348 19.2509
lfingers 7.12502
lthumb 1.38139 49.2262
rfemur -49.4742 -1.15101 10.6475
rtibia 38.4283
rfoot -18.5987 -3.98677
rtoes 12.7002
lfemur -50.7886 -2.18207 -8.46847
ltibia 32.9241
lfoot -13.1768 -1.90706
ltoes -36.0049
3466
root -1.8825 17.5674 7.33865 209.023 -186.571 -179.309
lowerback 16.6809 0.420159 1.9008
upperback -5.23166 1.03094 0.161605
thorax -15.3521 0.298244 -1.20053
lowerneck 10.5298 8.52893 16.0034
upperneck -23.1484 10.6495 -21.6503
head -6.37352 6.08542 -10.8281
rclavicle -6.75868e-015 -1.23246e-014
rhumerus -42.6707 -10.8359 -70.0202
rradius 34.2105
rwrist 10.5055
rhand -9.41494 18.2174
rfingers 7.12502
rthumb 16.547 -11.0971
lclavicle -6.75868e-015 -1.23246e-014
lhumerus -52.6138 2.08695 70.7952
lradius 53.2531
lwrist 21.7726
lhand -25.7425 19.2666
lfingers 7.12502
lthumb 0.794428 49.2449
rfemur -49.0272 -1.13967 10.8575
rtibia 38.4521
rfoot -18.7246 -3.95512
rtoes 13.0714
lfemur -50.4651 -2.21906 -8.32825
ltibia 33.0334
lfoot -13.2023 -1.95175
ltoes -35.9651
3467
root -1.8867 17.5643 7.35118 208.676 -186.724 -179.378
lowerback 16.6102 0.437118 2.10087
upperback -5.1768 1.09338 0.137331
thorax -15.2365 0.307967 -1.35832
lowerneck 10.576 8.54089 16.1283
upperneck -23.4667 10.659 -21.7373
head -6.46321 6.08837 -10.9139
rclavicle -1.37161e-014 -1.63003e-014
rhumerus -42.4837 -10.8285 -70.2757
rradius 34.7933
rwrist 10.3154
rhand -9.58468 18.0582
rfingers 7.12502
rthumb 16.3836 -11.2699
lclavicle -1.37161e-014 -1.63003e-014
lhumerus -52.318 1.66347 71.0186
lradius 54.3059
lwrist 22.3164
lhand -26.1911 18.9626
lfingers 7.12502
lthumb 0.361149 48.9421
rfemur -48.5649 -1.23762 11.0629
rtibia 38.4758
rfoot -18.8483 -3.80911
rtoes 13.3445
lfemur -50.1273 -2.32902 -8.2089
ltibia 33.1423
lfoot -13.2817 -1.91072
ltoes -36.3592
3468
root -1.8893 17.5591 7.36682 208.332 -186.88 -179.477
lowerback 16.5295 0.4411 2.38251
upperback -5.16455 1.15177 0.0763987
thorax -15.1639 0.305078 -1.60271
lowerneck 10.4819 8.6021 16.2817
upperneck -23.5421 10.7567 -21.7491
head -6.43731 6.12106 -10.9403
rclavicle 5.96354e-016 -8.34896e-015
rhumerus -42.2741 -10.7032 -70.6428
rradius 35.1479
rwrist 10.1685
rhand -9.74698 17.8892
rfingers 7.12502
rthumb 16.2273 -11.4517
lclavicle 5.96354e-016 -8.34896e-015
lhumerus -51.9963 1.28987 71.1027
lradius 55.2061
lwrist 22.6959
lhand -26.4652 18.635
lfingers 7.12502
lthumb 0.0963999 48.6147
rfemur -48.1712 -1.30538 11.2784
rtibia 38.541
rfoot -18.9202 -3.81374
rtoes 12.8763
lfemur -49.7852 -2.37623 -8.09601
ltibia 33.2511
lfoot -13.5272 -1.95812
ltoes -36.5131
3469
root -1.89319 17.5586 7.38741 208.093 -187.017 -179.492
lowerback 16.3385 0.444223 2.46948
upperback -5.19473 1.16823 0.059077
thorax -15.0792 0.304757 -1.67321
lowerneck 10.2854 8.6975 16.3023
upperneck -23.4403 10.8837 -21.7112
head -6.34431 6.17158 -10.8999
rclavicle -2.28602e-014 -4.37326e-015
rhumerus -42.0308 -10.4844 -70.9582
rradius 35.5746
rwrist 10.0946
rhand -9.71524 18.1753
rfingers 7.12502
rthumb 16.2578 -11.163
lclavicle -2.28602e-014 -4.37326e-015
lhumerus -51.8009 1.0239 71.3086
lradius 56.1992
lwrist 22.6423
lhand -26.7621 18.3278
lfingers 7.12502
lthumb -0.190277 48.3074
rfemur -47.8706 -1.37609 11.3787
rtibia 38.6352
rfoot -19.0675 -3.88826
rtoes 12.2623
lfemur -49.5308 -2.42614 -8.07974
ltibia 33.354
lfoot -13.6924 -2.12973
ltoes -36.1571
3470
root -1.89503 17.5579 7.40733 207.961 -187.01 -179.332
lowerback 16.0942 0.477672 2.30075
upperback -5.26686 1.16271 0.00644532
thorax -15.0155 0.315779 -1.63166
lowerneck 10.2308 8.74901 16.2919
upperneck -23.5288 10.943 -21.6968
head -6.35116 6.19683 -10.895
rclavicle 4.17448e-015 1.15295e-014
rhumerus -41.7958 -10.0677 -71.3532
rradius 36.2363
rwrist 9.72317
rhand -9.75399 18.038
rfingers 7.12502
rthumb 16.2205 -11.3034
lclavicle 4.17448e-015 1.15295e-014
lhumerus -51.7414 0.846281 71.5404
lradius 57.3028
lwrist 22.2292
lhand -27.0774 18.3242
lfingers 7.12502
lthumb -0.494828 48.3033
rfemur -47.6383 -1.44791 11.238
rtibia 38.7233
rfoot -19.2281 -3.84323
rtoes 12.3334
lfemur -49.365 -2.54049 -8.25433
ltibia 33.4677
lfoot -13.8181 -2.20527
ltoes -36.0507
3471
root -1.89395 17.5559 7.42078 207.804 -187.035 -179.302
lowerback 15.9603 0.509441 2.31884
upperback -5.41941 1.20818 -0.00208425
thorax -15.1129 0.331823 -1.66372
lowerneck 10.2088 8.7632 16.2021
upperneck -23.4913 10.9555 -21.6337
head -6.34454 6.20195 -10.8518
rclavicle 5.76476e-015 1.98785e-015
rhumerus -41.7229 -9.54668 -71.7165
rradius 37.014
rwrist 9.25664
rhand -9.84353 17.4292
rfingers 7.12502
rthumb 16.1343 -11.9192
lclavicle 5.76476e-015 1.98785e-015
lhumerus -51.7876 0.670857 71.7548
lradius 58.4179
lwrist 22.0766
lhand -27.4114 18.9159
lfingers 7.12502
lthumb -0.817397 48.8941
rfemur -47.434 -1.50525 11.2339
rtibia 38.8048
rfoot -19.3227 -3.70646
rtoes 12.9866
lfemur -49.2258 -2.55332 -8.33443
ltibia 33.5958
lfoot -14.0938 -2.311
ltoes -35.9076
3472
root -1.89519 17.5541 7.43367 207.479 -187.222 -179.489
lowerback 15.9727 0.507452 2.60456
upperback -5.5482 1.28373 0.0754578
thorax -15.2695 0.340222 -1.76121
lowerneck 10.1834 8.79501 16.119
upperneck -23.3961 10.9878 -21.6283
head -6.30947 6.22268 -10.8237
rclavicle -2.46493e-014 -1.15295e-014
rhumerus -41.6707 -9.09479 -71.9898
rradius 37.6616
rwrist 8.85387
rhand -10.0331 17.395
rfingers 7.12502
rthumb 15.9517 -11.9681
lclavicle -2.46493e-014 -1.15295e-014
lhumerus -51.8003 0.487328 71.9843
lradius 59.5511
lwrist 21.981
lhand -27.5113 19.0634
lfingers 7.12502
lthumb -0.913878 49.0412
rfemur -47.0753 -1.5243 11.514
rtibia 38.8804
rfoot -19.4428 -3.69576
rtoes 13.1494
lfemur -48.9547 -2.51133 -8.17423
ltibia 33.7219
lfoot -14.3009 -2.49618
ltoes -35.6009
